<svg width="512" height="316" viewBox="0 0 512 316" fill="none" xmlns="http://www.w3.org/2000/svg">
<rect width="512" height="316" fill="#8DADD3"/>
<path d="M171.195 198.438C167.695 198.229 164.341 197.833 161.132 197.25C157.924 196.667 155.299 196.083 153.257 195.5C151.216 194.875 149.945 194.479 149.445 194.312V171.625H161.195L163.132 181.25C163.382 181.333 163.966 181.583 164.882 182C165.841 182.375 167.132 182.729 168.757 183.062C170.382 183.396 172.216 183.562 174.257 183.562C178.341 183.562 181.737 182.771 184.445 181.188C187.195 179.604 188.57 177.375 188.57 174.5C188.57 172.042 187.466 170.104 185.257 168.688C183.049 167.271 179.424 165.708 174.382 164C169.257 162.208 165.028 160.458 161.695 158.75C158.362 157.042 155.487 154.521 153.07 151.188C150.653 147.854 149.445 143.5 149.445 138.125C149.445 131.625 151.403 126.333 155.32 122.25C159.237 118.167 164.528 115.479 171.195 114.188V99.0625H184.882V113.688C188.132 113.938 191.237 114.417 194.195 115.125C197.195 115.792 199.591 116.438 201.382 117.062C203.174 117.688 204.32 118.083 204.82 118.25L204.32 139.25H193.32L190.882 129.812C190.882 129.729 189.695 129.396 187.32 128.812C184.945 128.188 182.716 127.875 180.632 127.875C176.632 127.875 173.57 128.625 171.445 130.125C169.32 131.625 168.257 133.562 168.257 135.938C168.257 138.396 169.403 140.354 171.695 141.812C173.987 143.271 177.612 144.854 182.57 146.562C187.778 148.438 192.007 150.208 195.257 151.875C198.507 153.542 201.32 156 203.695 159.25C206.07 162.5 207.257 166.625 207.257 171.625C207.257 178.542 205.237 184.25 201.195 188.75C197.153 193.208 191.716 196.167 184.882 197.625V215.688H171.195V198.438ZM249.5 198.438C246 198.229 242.646 197.833 239.438 197.25C236.229 196.667 233.604 196.083 231.562 195.5C229.521 194.875 228.25 194.479 227.75 194.312V171.625H239.5L241.438 181.25C241.688 181.333 242.271 181.583 243.188 182C244.146 182.375 245.438 182.729 247.062 183.062C248.688 183.396 250.521 183.562 252.562 183.562C256.646 183.562 260.042 182.771 262.75 181.188C265.5 179.604 266.875 177.375 266.875 174.5C266.875 172.042 265.771 170.104 263.562 168.688C261.354 167.271 257.729 165.708 252.688 164C247.562 162.208 243.333 160.458 240 158.75C236.667 157.042 233.792 154.521 231.375 151.188C228.958 147.854 227.75 143.5 227.75 138.125C227.75 131.625 229.708 126.333 233.625 122.25C237.542 118.167 242.833 115.479 249.5 114.188V99.0625H263.188V113.688C266.438 113.938 269.542 114.417 272.5 115.125C275.5 115.792 277.896 116.438 279.688 117.062C281.479 117.688 282.625 118.083 283.125 118.25L282.625 139.25H271.625L269.188 129.812C269.188 129.729 268 129.396 265.625 128.812C263.25 128.188 261.021 127.875 258.938 127.875C254.938 127.875 251.875 128.625 249.75 130.125C247.625 131.625 246.562 133.562 246.562 135.938C246.562 138.396 247.708 140.354 250 141.812C252.292 143.271 255.917 144.854 260.875 146.562C266.083 148.438 270.312 150.208 273.562 151.875C276.812 153.542 279.625 156 282 159.25C284.375 162.5 285.562 166.625 285.562 171.625C285.562 178.542 283.542 184.25 279.5 188.75C275.458 193.208 270.021 196.167 263.188 197.625V215.688H249.5V198.438ZM327.805 198.438C324.305 198.229 320.951 197.833 317.742 197.25C314.534 196.667 311.909 196.083 309.867 195.5C307.826 194.875 306.555 194.479 306.055 194.312V171.625H317.805L319.742 181.25C319.992 181.333 320.576 181.583 321.492 182C322.451 182.375 323.742 182.729 325.367 183.062C326.992 183.396 328.826 183.562 330.867 183.562C334.951 183.562 338.347 182.771 341.055 181.188C343.805 179.604 345.18 177.375 345.18 174.5C345.18 172.042 344.076 170.104 341.867 168.688C339.659 167.271 336.034 165.708 330.992 164C325.867 162.208 321.638 160.458 318.305 158.75C314.972 157.042 312.097 154.521 309.68 151.188C307.263 147.854 306.055 143.5 306.055 138.125C306.055 131.625 308.013 126.333 311.93 122.25C315.847 118.167 321.138 115.479 327.805 114.188V99.0625H341.492V113.688C344.742 113.938 347.847 114.417 350.805 115.125C353.805 115.792 356.201 116.438 357.992 117.062C359.784 117.688 360.93 118.083 361.43 118.25L360.93 139.25H349.93L347.492 129.812C347.492 129.729 346.305 129.396 343.93 128.812C341.555 128.188 339.326 127.875 337.242 127.875C333.242 127.875 330.18 128.625 328.055 130.125C325.93 131.625 324.867 133.562 324.867 135.938C324.867 138.396 326.013 140.354 328.305 141.812C330.597 143.271 334.222 144.854 339.18 146.562C344.388 148.438 348.617 150.208 351.867 151.875C355.117 153.542 357.93 156 360.305 159.25C362.68 162.5 363.867 166.625 363.867 171.625C363.867 178.542 361.847 184.25 357.805 188.75C353.763 193.208 348.326 196.167 341.492 197.625V215.688H327.805V198.438Z" fill="black"/>
</svg>
